<?xml version="1.0" standalone="no"?>
<!DOCTYPE svg PUBLIC "-//W3C//DTD SVG 20010904//EN"
 "http://www.w3.org/TR/2001/REC-SVG-20010904/DTD/svg10.dtd">
<svg version="1.0" xmlns="http://www.w3.org/2000/svg"
 width="2000.000000pt" height="1500.000000pt" viewBox="0 0 2000.000000 1500.000000"
 preserveAspectRatio="xMidYMid meet">

<g transform="translate(0.000000,1500.000000) scale(0.100000,-0.100000)"
fill="#000000" stroke="none">
<path d="M5595 8864 c-166 -61 -182 -294 -25 -374 57 -29 95 -33 152 -16 89
25 148 104 148 196 0 67 -18 107 -68 152 -62 56 -130 70 -207 42z"/>
<path d="M7683 8668 c-11 -13 -25 -38 -32 -57 -16 -48 -16 -2174 0 -2222 39
-115 142 -101 168 22 15 69 15 2109 0 2178 -19 90 -89 131 -136 79z"/>
<path d="M3576 8546 c-56 -21 -87 -47 -113 -92 -59 -104 -25 -227 77 -284 137
-76 303 23 303 180 0 139 -141 242 -267 196z"/>
<path d="M16600 7740 l0 -760 90 0 90 0 0 198 0 198 56 47 c31 26 60 45 64 42
5 -3 89 -113 186 -245 l178 -240 109 0 c65 0 106 4 102 9 -3 6 -106 144 -230
307 l-224 297 142 150 c78 82 175 185 215 228 l74 79 -109 -1 -108 -1 -188
-201 c-103 -111 -205 -226 -228 -254 -22 -29 -41 -53 -42 -53 -1 0 -2 215 -2
477 l0 478 -87 3 -88 3 0 -761z"/>
<path d="M8290 7690 l0 -712 283 4 c248 4 292 8 362 26 240 65 393 210 461
437 24 81 27 106 28 250 0 121 -4 177 -17 230 -56 221 -200 373 -422 446 -66
22 -89 23 -382 27 l-313 4 0 -712z m588 535 c179 -42 300 -165 338 -344 7 -36
14 -118 14 -182 0 -243 -77 -402 -238 -487 -94 -50 -160 -63 -349 -69 l-173
-6 0 552 0 551 173 0 c116 0 192 -5 235 -15z"/>
<path d="M11570 7690 l0 -710 90 0 90 0 0 274 0 273 158 6 c181 7 256 22 354
74 154 81 227 220 216 414 -11 193 -122 317 -325 363 -56 12 -128 16 -327 16
l-256 0 0 -710z m539 531 c115 -36 169 -102 179 -217 7 -86 -13 -158 -56 -206
-67 -74 -140 -97 -339 -105 l-143 -6 0 277 0 276 149 0 c119 0 162 -4 210 -19z"/>
<path d="M14826 8213 c-15 -49 -30 -99 -34 -113 -6 -18 -28 -35 -85 -63 l-77
-38 0 -45 0 -44 75 0 74 0 3 -367 c3 -360 4 -369 26 -418 45 -98 125 -150 246
-162 66 -6 192 11 213 29 8 6 13 35 13 75 l0 66 -32 -7 c-127 -26 -195 -16
-240 32 -45 48 -48 75 -48 423 l0 329 155 0 155 0 0 70 0 70 -155 0 -155 0 0
125 0 125 -54 0 -54 0 -26 -87z"/>
<path d="M6121 8265 c-50 -16 -103 -63 -126 -111 -19 -40 -20 -124 -2 -167 27
-64 121 -127 191 -127 74 0 164 64 192 135 60 159 -94 322 -255 270z"/>
<path d="M4430 8129 c-168 -67 -178 -298 -16 -381 57 -29 149 -22 205 16 45
32 91 112 91 160 0 118 -96 216 -210 215 -25 0 -56 -5 -70 -10z"/>
<path d="M10113 8056 c-23 -7 -57 -23 -76 -35 -36 -22 -110 -98 -138 -141 -16
-25 -17 -23 -24 55 -10 122 -5 115 -91 115 l-74 0 0 -535 0 -535 90 0 90 0 0
278 c0 152 5 310 10 349 17 128 82 222 188 270 48 22 64 25 142 21 l88 -4 12
79 c6 43 8 82 5 85 -13 13 -180 12 -222 -2z"/>
<path d="M13140 8054 c-61 -19 -132 -73 -183 -139 l-42 -55 -10 92 -10 93 -78
3 -77 3 2 -533 3 -533 92 -3 92 -3 3 343 c3 391 3 391 93 487 67 72 125 94
236 89 101 -3 91 -13 105 103 6 53 5 57 -18 62 -41 11 -161 6 -208 -9z"/>
<path d="M13863 8056 c-85 -21 -156 -62 -217 -126 -98 -103 -137 -217 -138
-405 0 -136 16 -214 63 -308 34 -66 105 -148 159 -182 97 -61 242 -87 366 -66
194 34 328 164 380 371 22 88 22 274 0 359 -50 187 -169 311 -343 356 -68 18
-198 18 -270 1z m274 -167 c98 -47 156 -156 169 -317 17 -209 -56 -384 -185
-440 -49 -21 -193 -21 -242 0 -130 56 -203 232 -184 442 21 246 129 356 335
340 36 -3 84 -14 107 -25z"/>
<path d="M15770 8056 c-162 -47 -278 -170 -326 -346 -8 -30 -17 -100 -20 -155
-19 -309 124 -525 384 -581 126 -26 299 -12 425 36 l57 21 0 81 c0 72 -2 79
-17 73 -92 -38 -177 -58 -278 -62 -155 -8 -208 9 -284 85 -61 62 -86 117 -97
215 l-7 57 368 0 368 0 -6 113 c-10 181 -51 283 -152 375 -76 69 -142 94 -270
98 -63 2 -117 -1 -145 -10z m208 -148 c87 -22 147 -106 167 -235 l7 -43 -270
0 -270 0 14 60 c16 70 32 105 70 149 60 71 168 98 282 69z"/>
<path d="M10370 8043 c0 -5 95 -245 212 -535 l212 -527 -38 -95 c-21 -52 -47
-110 -59 -127 -55 -81 -136 -113 -249 -100 l-58 7 0 -73 0 -72 38 -6 c20 -4
48 -8 62 -11 41 -8 168 15 212 37 60 31 128 105 170 185 30 56 508 1299 508
1319 0 3 -44 4 -97 3 l-97 -3 -122 -340 c-68 -187 -135 -384 -151 -437 -15
-54 -30 -98 -33 -98 -3 0 -15 37 -28 83 -19 69 -128 365 -262 715 l-32 82 -94
0 c-52 0 -94 -3 -94 -7z"/>
<path d="M4968 7795 c-63 -35 -87 -129 -48 -193 32 -53 69 -68 213 -87 73 -10
140 -21 149 -24 13 -5 -56 -62 -269 -221 -157 -118 -291 -216 -298 -218 -7 -2
-176 122 -376 274 -200 152 -377 285 -394 296 -60 36 -143 17 -186 -44 -28
-39 -31 -111 -5 -150 22 -33 935 -732 956 -732 8 0 179 124 380 275 201 152
370 278 376 282 7 4 4 -37 -7 -116 -24 -160 -24 -214 1 -254 53 -88 200 -82
243 10 21 45 127 808 113 813 -29 9 -737 104 -776 104 -25 -1 -57 -7 -72 -15z"/>
<path d="M2845 7784 c-124 -64 -158 -215 -73 -319 109 -132 321 -79 359 89 20
92 -29 189 -115 230 -43 20 -132 21 -171 0z"/>
<path d="M6907 7710 c-124 -37 -178 -204 -101 -312 82 -117 256 -117 338 0 49
69 46 172 -8 245 -43 59 -150 90 -229 67z"/>
<path d="M6183 7215 c-65 -33 -105 -90 -111 -161 -11 -129 76 -224 203 -224
223 0 286 298 83 390 -59 27 -114 25 -175 -5z"/>
<path d="M3352 7143 c-48 -23 -99 -88 -110 -139 -43 -202 198 -336 344 -190
131 130 40 347 -145 346 -31 0 -71 -8 -89 -17z"/>
<path d="M2600 6392 c-99 -50 -106 -186 -11 -244 l36 -23 2097 0 2097 0 27 21
c48 35 67 70 67 117 0 56 -27 104 -73 128 -34 18 -105 19 -2120 19 -1965 0
-2087 -1 -2120 -18z"/>
</g>
</svg>
