<?xml version="1.0" standalone="no"?>
<!DOCTYPE svg PUBLIC "-//W3C//DTD SVG 20010904//EN"
 "http://www.w3.org/TR/2001/REC-SVG-20010904/DTD/svg10.dtd">
<svg version="1.0" xmlns="http://www.w3.org/2000/svg"
 width="1600.000000pt" height="1200.000000pt" viewBox="0 0 1600.000000 1200.000000"
 preserveAspectRatio="xMidYMid meet">

<g transform="translate(0.000000,1200.000000) scale(0.100000,-0.100000)"
fill="#000000" stroke="none">
<path d="M4495 7101 c-78 -19 -127 -83 -129 -166 0 -57 23 -102 73 -140 38
-29 148 -28 188 1 49 36 73 82 73 137 0 112 -99 193 -205 168z"/>
<path d="M6157 6949 c-48 -29 -47 -8 -47 -949 0 -766 2 -885 15 -910 32 -61
91 -63 119 -3 15 32 17 111 17 914 0 798 -2 882 -17 911 -9 18 -17 34 -18 35
-6 9 -55 11 -69 2z"/>
<path d="M2855 6839 c-112 -41 -148 -182 -69 -269 72 -80 201 -74 261 13 40
57 40 137 0 194 -15 22 -39 45 -54 52 -38 17 -104 22 -138 10z"/>
<path d="M13280 6190 l0 -610 75 0 75 0 0 160 0 159 28 26 c58 55 52 59 167
-97 58 -79 111 -150 118 -158 6 -9 25 -32 40 -53 l28 -37 83 0 c45 0 86 3 89
7 4 3 0 14 -9 24 -8 9 -91 118 -184 240 l-169 224 72 75 c40 41 117 123 172
180 l99 105 -89 3 -89 3 -34 -38 c-19 -21 -75 -81 -126 -133 -73 -76 -148
-161 -196 -222 -3 -4 -5 163 -5 370 l0 377 -72 3 -73 3 0 -611z"/>
<path d="M6630 6151 l0 -571 194 0 c268 0 408 29 513 106 143 106 209 258 207
484 0 177 -39 289 -134 393 -56 61 -111 97 -198 130 -51 18 -83 21 -319 25
l-263 4 0 -571z m483 424 c106 -28 182 -92 231 -195 30 -64 31 -68 31 -220 0
-149 -1 -157 -28 -214 -38 -79 -70 -120 -125 -156 -83 -55 -232 -85 -368 -73
l-74 6 0 433 0 434 138 0 c90 0 158 -5 195 -15z"/>
<path d="M9250 6150 l0 -571 76 3 76 3 -2 218 -1 217 89 0 c170 0 321 40 391
104 75 68 117 184 108 297 -11 126 -82 226 -194 270 -54 21 -76 23 -300 27
l-243 4 0 -572z m420 429 c99 -22 150 -84 158 -189 3 -43 -1 -67 -18 -103 -43
-92 -124 -127 -296 -130 l-109 -2 -3 218 -2 217 112 0 c62 0 133 -5 158 -11z"/>
<path d="M11877 6633 c-3 -5 -12 -35 -21 -68 -29 -102 -33 -108 -97 -137 -59
-27 -60 -28 -57 -65 l3 -38 55 0 55 0 5 -295 c5 -293 5 -296 31 -345 27 -54
70 -89 128 -105 46 -13 165 -13 211 0 35 10 35 10 34 67 l0 58 -40 -5 c-83
-10 -132 -5 -161 16 -49 36 -54 71 -51 353 l3 256 120 1 120 1 3 56 3 56 -123
3 -123 3 -3 98 -3 97 -44 0 c-24 0 -46 -3 -48 -7z"/>
<path d="M4912 6620 c-149 -34 -181 -220 -52 -308 29 -20 45 -23 96 -20 65 4
102 25 136 76 26 39 24 134 -2 178 -36 57 -111 89 -178 74z"/>
<path d="M3563 6510 c-45 -10 -80 -35 -104 -73 -27 -43 -23 -149 6 -189 67
-90 210 -89 272 1 88 129 -24 297 -174 261z"/>
<path d="M8085 6448 c-44 -15 -133 -85 -155 -120 l-18 -31 -7 49 c-14 107 -8
99 -78 96 l-62 -3 3 -430 2 -430 73 3 72 3 5 275 5 275 29 53 c52 93 130 136
237 130 l66 -4 10 64 c9 62 9 64 -14 73 -32 12 -130 10 -168 -3z"/>
<path d="M10510 6447 c-62 -23 -109 -60 -150 -117 l-25 -35 -6 30 c-4 17 -7
49 -8 72 l-1 41 -61 4 c-35 2 -63 -1 -65 -7 -3 -6 -3 -199 -2 -430 l3 -420 72
0 72 0 4 266 c4 261 4 266 30 323 30 64 50 85 121 122 42 22 59 26 118 22 l68
-4 7 36 c3 19 7 51 7 70 l1 35 -75 2 c-42 2 -90 -3 -110 -10z"/>
<path d="M11078 6445 c-149 -41 -245 -160 -269 -333 -32 -228 44 -417 202
-502 63 -35 65 -35 189 -35 116 0 129 2 181 27 160 79 241 268 212 497 -23
180 -112 295 -266 343 -68 21 -179 23 -249 3z m254 -153 c149 -103 151 -459 4
-560 -73 -50 -199 -49 -274 1 -72 49 -120 208 -103 344 15 118 60 198 134 233
34 16 57 20 118 17 65 -3 81 -8 121 -35z"/>
<path d="M12592 6441 c-169 -63 -257 -213 -256 -436 1 -104 24 -214 50 -236 8
-6 14 -18 14 -26 0 -8 24 -38 54 -68 42 -41 71 -58 132 -81 69 -25 91 -28 184
-27 99 1 227 28 253 53 7 6 11 75 8 127 -1 9 -13 7 -44 -6 -64 -27 -139 -41
-226 -41 -140 0 -223 61 -258 190 -7 25 -13 55 -13 68 l0 22 291 0 292 0 -5
113 c-4 102 -8 118 -39 181 -59 120 -149 175 -299 182 -67 4 -96 1 -138 -15z
m202 -121 c61 -23 110 -98 118 -182 l3 -33 -207 -3 -208 -3 1 28 c1 69 56 154
121 186 37 18 133 22 172 7z"/>
<path d="M8940 6425 c-4 -11 -35 -99 -69 -195 -34 -96 -70 -197 -81 -225 -16
-42 -51 -150 -79 -245 -8 -24 -8 -24 -16 10 -7 35 -107 318 -125 355 -17 37
-82 209 -98 263 l-15 52 -84 0 c-45 0 -83 -2 -83 -6 0 -3 8 -24 19 -47 10 -23
40 -96 65 -162 26 -66 51 -129 56 -140 12 -24 117 -286 136 -335 7 -19 24 -64
38 -100 l26 -64 -27 -71 c-54 -142 -106 -188 -215 -186 -33 0 -63 3 -68 6 -13
8 -17 -15 -12 -72 l4 -52 53 -6 c61 -8 145 1 191 20 79 33 148 135 215 320 16
44 34 89 39 100 5 11 25 63 44 115 20 52 55 147 79 210 24 63 71 187 105 275
33 88 63 168 67 177 6 14 -4 17 -75 20 -75 3 -83 1 -90 -17z"/>
<path d="M3972 6235 c-36 -16 -52 -48 -52 -103 0 -77 46 -108 182 -122 51 -5
99 -10 106 -10 6 0 12 -7 12 -15 0 -8 -4 -15 -8 -15 -4 0 -21 -11 -37 -25 -17
-13 -97 -75 -180 -136 -82 -62 -152 -115 -155 -118 -3 -3 -20 -16 -37 -29
l-33 -23 -202 153 c-112 83 -217 163 -234 177 -17 14 -42 34 -55 43 -13 9 -48
35 -78 58 -46 34 -62 40 -104 40 -40 0 -53 -5 -77 -28 -37 -37 -47 -89 -26
-131 9 -17 42 -50 74 -73 31 -24 59 -45 62 -48 6 -6 20 -16 230 -176 266 -203
402 -304 409 -304 5 0 103 71 221 160 14 10 88 66 165 124 77 58 145 109 150
113 6 5 24 18 41 30 l31 22 -13 -92 c-22 -155 -20 -183 20 -223 26 -26 42 -34
70 -34 88 0 119 45 141 212 8 62 24 178 35 258 11 80 22 168 26 196 l6 50
-118 17 c-520 75 -519 75 -572 52z"/>
<path d="M2280 6233 c-64 -24 -102 -82 -102 -154 0 -105 81 -178 185 -165 58
6 91 27 125 77 20 29 23 43 20 97 -2 35 -9 66 -15 70 -5 4 -15 17 -21 28 -22
42 -133 69 -192 47z"/>
<path d="M5500 6157 c-80 -40 -111 -137 -70 -221 28 -57 77 -88 142 -90 64 -1
101 16 141 66 42 52 47 117 15 178 -46 84 -138 112 -228 67z"/>
<path d="M4934 5771 c-53 -32 -78 -78 -79 -141 0 -107 75 -177 180 -168 64 5
108 35 136 91 40 76 5 182 -71 222 -41 21 -128 19 -166 -4z"/>
<path d="M2670 5713 c-60 -41 -80 -77 -80 -141 0 -70 21 -111 72 -145 55 -36
130 -37 178 -4 53 36 73 70 78 134 3 50 0 64 -24 99 -15 23 -42 49 -61 58 -45
21 -131 21 -163 -1z"/>
<path d="M2074 5116 c-40 -18 -68 -75 -60 -122 4 -18 20 -47 37 -64 l31 -30
1691 0 c1588 0 1693 2 1713 18 33 26 55 78 48 109 -14 57 -33 82 -72 92 -25 8
-576 11 -1697 11 -1365 -1 -1665 -3 -1691 -14z"/>
</g>
</svg>
