<?xml version="1.0" encoding="UTF-8"?>
<svg version="1.1" xmlns="http://www.w3.org/2000/svg" width="299" height="169">
<path d="M0 0 C98.67 0 197.34 0 299 0 C299 55.77 299 111.54 299 169 C200.33 169 101.66 169 0 169 C0 113.23 0 57.46 0 0 Z " fill="#7F7F7F" transform="translate(0,0)"/>
<path d="M0 0 C98.67 0 197.34 0 299 0 C299 14.52 299 29.04 299 44 C200.33 44 101.66 44 0 44 C0 29.48 0 14.96 0 0 Z " fill="#3D4154" transform="translate(0,0)"/>
<path d="M0 0 C98.67 0 197.34 0 299 0 C299 5.61 299 11.22 299 17 C200.33 17 101.66 17 0 17 C0 11.39 0 5.78 0 0 Z " fill="#33374A" transform="translate(0,27)"/>
<path d="M0 0 C98.67 0 197.34 0 299 0 C299 4.62 299 9.24 299 14 C200.33 14 101.66 14 0 14 C0 9.38 0 4.76 0 0 Z " fill="#7C7D7E" transform="translate(0,44)"/>
<path d="M0 0 C98.67 0 197.34 0 299 0 C299 2.97 299 5.94 299 9 C200.33 9 101.66 9 0 9 C0 6.03 0 3.06 0 0 Z " fill="#474B5D" transform="translate(0,18)"/>
<path d="M0 0 C98.67 0 197.34 0 299 0 C299 2.31 299 4.62 299 7 C200.33 7 101.66 7 0 7 C0 4.69 0 2.38 0 0 Z " fill="#61636C" transform="translate(0,44)"/>
<path d="M0 0 C98.67 0 197.34 0 299 0 C299 1.32 299 2.64 299 4 C200.33 4 101.66 4 0 4 C0 2.68 0 1.36 0 0 Z " fill="#42475A" transform="translate(0,40)"/>
<path d="M0 0 C98.67 0 197.34 0 299 0 C299 0.99 299 1.98 299 3 C266.54141377 3.15122689 234.08280721 3.29634507 201.62415757 3.4332476 C197.76888806 3.44951341 193.91361877 3.46582989 190.05834961 3.48217773 C189.29101988 3.48543066 188.52369014 3.48868358 187.73310799 3.49203508 C175.40190715 3.54443055 163.07072833 3.6009048 150.73955297 3.6589582 C138.03239237 3.71868819 125.32521754 3.77386875 112.61801964 3.82505554 C105.50346613 3.85383862 98.38893328 3.8845672 91.27441216 3.92053413 C60.83211797 4.07340452 30.42686226 4.08959565 0 3 C0 2.01 0 1.02 0 0 Z " fill="#292C3B" transform="translate(0,37)"/>
<path d="M0 0 C98.67 0 197.34 0 299 0 C299 0.99 299 1.98 299 3 C200.33 3 101.66 3 0 3 C0 2.01 0 1.02 0 0 Z " fill="#525353" transform="translate(0,51)"/>
<path d="M0 0 C98.67 0 197.34 0 299 0 C299 0.99 299 1.98 299 3 C200.33 3 101.66 3 0 3 C0 2.01 0 1.02 0 0 Z " fill="#A3A3A5" transform="translate(0,48)"/>
<path d="M0 0 C98.67 0 197.34 0 299 0 C299 0.99 299 1.98 299 3 C200.33 3 101.66 3 0 3 C0 2.01 0 1.02 0 0 Z " fill="#4E5472" transform="translate(0,34)"/>
<path d="M0 0 C98.67 0 197.34 0 299 0 C299 0.99 299 1.98 299 3 C200.33 3 101.66 3 0 3 C0 2.01 0 1.02 0 0 Z " fill="#64697F" transform="translate(0,18)"/>
<path d="M0 0 C98.67 0 197.34 0 299 0 C299 0.99 299 1.98 299 3 C200.33 3 101.66 3 0 3 C0 2.01 0 1.02 0 0 Z " fill="#585E78" transform="translate(0,0)"/>
<path d="M0 0 C98.67 0 197.34 0 299 0 C299 0.99 299 1.98 299 3 C200.33 3 101.66 3 0 3 C0 2.01 0 1.02 0 0 Z " fill="#A8A8A9" transform="translate(0,62)"/>
</svg>
